<svg width="38" height="28" viewBox="0 0 38 28" fill="none" xmlns="http://www.w3.org/2000/svg">
<path d="M30.6667 17.3333V3.99996C30.6667 2.16663 29.1667 0.666626 27.3333 0.666626H4C2.16667 0.666626 0.666666 2.16663 0.666666 3.99996V17.3333C0.666666 19.1666 2.16667 20.6666 4 20.6666H27.3333C29.1667 20.6666 30.6667 19.1666 30.6667 17.3333ZM15.6667 15.6666C12.9 15.6666 10.6667 13.4333 10.6667 10.6666C10.6667 7.89996 12.9 5.66663 15.6667 5.66663C18.4333 5.66663 20.6667 7.89996 20.6667 10.6666C20.6667 13.4333 18.4333 15.6666 15.6667 15.6666ZM37.3333 5.66663V24C37.3333 25.8333 35.8333 27.3333 34 27.3333H5.66667V24H34V5.66663H37.3333Z" fill="#A1C5E9"/>
</svg>
