<svg width="32" height="34" viewBox="0 0 32 34" fill="none" xmlns="http://www.w3.org/2000/svg">
<path d="M13.3333 0.333374L25.4967 4.13337C25.8359 4.23928 26.1324 4.45084 26.3429 4.73719C26.5534 5.02353 26.6668 5.36966 26.6667 5.72504V8.66671H30C30.442 8.66671 30.866 8.8423 31.1785 9.15486C31.4911 9.46742 31.6667 9.89135 31.6667 10.3334V13.6667H10V10.3334C10 9.89135 10.1756 9.46742 10.4882 9.15486C10.8007 8.8423 11.2246 8.66671 11.6667 8.66671H23.3333V6.95004L13.3333 3.82337L3.33333 6.95004V19.29C3.3331 20.3104 3.56708 21.3172 4.01727 22.2329C4.46747 23.1486 5.12184 23.9488 5.93 24.5717L6.245 24.7984L13.3333 29.6334L19.6367 25.3334H11.6667C11.2246 25.3334 10.8007 25.1578 10.4882 24.8452C10.1756 24.5327 10 24.1087 10 23.6667V17H31.6667V23.6667C31.6667 24.1087 31.4911 24.5327 31.1785 24.8452C30.866 25.1578 30.442 25.3334 30 25.3334L24.6333 25.335C23.9883 26.185 23.205 26.935 22.3 27.5517L13.3333 33.6667L4.36667 27.5534C3.02087 26.6358 1.91959 25.4034 1.15857 23.9632C0.397547 22.5231 -0.000168705 20.9189 5.36831e-08 19.29V5.72504C0.00020101 5.36994 0.113811 5.02419 0.32427 4.73818C0.53473 4.45217 0.831036 4.24086 1.17 4.13504L13.3333 0.333374Z" fill="#A1C5E9"/>
</svg>
