<svg width="80" height="68" viewBox="0 0 80 68" fill="none" xmlns="http://www.w3.org/2000/svg">
<g opacity="0.5">
<g clip-path="url(#clip0_2_94)">
<path fill-rule="evenodd" clip-rule="evenodd" d="M0.350846 57.3796C12.2805 51.4794 18.2452 44.5467 18.2452 36.5813C13.1605 35.9913 8.95581 33.9017 5.63115 30.3124C2.3065 26.723 0.644199 22.5684 0.644199 17.8482C0.644199 12.8329 2.25761 8.6045 5.48448 5.16269C8.71136 1.72088 12.7693 4.76837e-07 17.6585 4.76837e-07C23.1344 4.76837e-07 27.8769 2.23714 31.886 6.7115C35.8952 11.1859 37.8997 16.6189 37.8997 23.0108C37.8997 42.1866 27.2414 57.1829 5.92451 68L0.350846 57.3796ZM42.4511 57.3796C54.4786 51.4794 60.4922 44.5467 60.4922 36.5813C55.3096 35.9913 51.0561 33.9017 47.7314 30.3124C44.4068 26.723 42.7445 22.5684 42.7445 17.8482C42.7445 12.8329 44.3823 8.6045 47.6581 5.16269C50.9339 1.72088 55.0163 4.76837e-07 59.9055 4.76837e-07C65.3814 4.76837e-07 70.0994 2.23714 74.0596 6.7115C78.0199 11.1859 80 16.6189 80 23.0108C80 42.1866 69.3906 57.1829 48.1715 68L42.4511 57.3796Z" fill="white"/>
</g>
</g>
<defs>
<clipPath id="clip0_2_94">
<rect x="80" y="68" width="80" height="68" rx="10" transform="rotate(-180 80 68)" fill="white"/>
</clipPath>
</defs>
</svg>
