<svg width="35" height="27" viewBox="0 0 35 27" fill="none" xmlns="http://www.w3.org/2000/svg">
<path d="M33.7778 5.10004C33.6743 4.96558 33.5413 4.85661 33.3892 4.7815C33.237 4.70638 33.0697 4.66712 32.9 4.66671H7.23334L6.73334 3.07782C6.67842 2.90722 6.58304 2.75244 6.45534 2.62668C6.32765 2.50092 6.17143 2.40791 6.00001 2.3556L1.44445 0.955598C1.30437 0.912554 1.15719 0.897521 1.0113 0.911358C0.865418 0.925195 0.723685 0.967631 0.594199 1.03624C0.33269 1.17481 0.136938 1.41159 0.0500057 1.69449C-0.0369264 1.97738 -0.00791727 2.28323 0.130651 2.54474C0.26922 2.80625 0.505997 3.002 0.788895 3.08893L4.77778 4.31115L9.86667 20.3889L8.05556 21.8778L7.91112 22.0223C7.46323 22.5409 7.20947 23.199 7.19325 23.8841C7.17704 24.5692 7.39938 25.2386 7.82223 25.7778C8.12507 26.1461 8.5099 26.4384 8.94594 26.6313C9.38197 26.8243 9.85711 26.9125 10.3333 26.8889H28.8778C29.1725 26.8889 29.4551 26.7719 29.6635 26.5635C29.8718 26.3551 29.9889 26.0725 29.9889 25.7778C29.9889 25.4831 29.8718 25.2005 29.6635 24.9921C29.4551 24.7838 29.1725 24.6667 28.8778 24.6667H10.1556C10.0276 24.6623 9.90295 24.625 9.79363 24.5584C9.6843 24.4918 9.594 24.3981 9.53144 24.2864C9.46889 24.1747 9.4362 24.0488 9.43653 23.9208C9.43687 23.7927 9.47021 23.667 9.53334 23.5556L12.2111 21.3334H29.3556C29.6094 21.3408 29.8581 21.261 30.0602 21.1074C30.2624 20.9537 30.4058 20.7355 30.4667 20.4889L34.0222 6.04449C34.056 5.87884 34.0516 5.70767 34.0092 5.544C33.9668 5.38034 33.8877 5.2285 33.7778 5.10004Z" fill="#A1C5E9"/>
</svg>
