<svg width="198" height="32" viewBox="0 0 198 32" fill="none" xmlns="http://www.w3.org/2000/svg">
<path d="M8.66 23.21C6.2 23.21 4.18 22.63 2.6 21.47C1.02 20.29 0.17 18.61 0.05 16.43H6.32C6.38 17.17 6.6 17.71 6.98 18.05C7.36 18.39 7.85 18.56 8.45 18.56C8.99 18.56 9.43 18.43 9.77 18.17C10.13 17.89 10.31 17.51 10.31 17.03C10.31 16.41 10.02 15.93 9.44 15.59C8.86 15.25 7.92 14.87 6.62 14.45C5.24 13.99 4.12 13.55 3.26 13.13C2.42 12.69 1.68 12.06 1.04 11.24C0.42 10.4 0.11 9.31 0.11 7.97C0.11 6.61 0.45 5.45 1.13 4.49C1.81 3.51 2.75 2.77 3.95 2.27C5.15 1.77 6.51 1.52 8.03 1.52C10.49 1.52 12.45 2.1 13.91 3.26C15.39 4.4 16.18 6.01 16.28 8.09H9.89C9.87 7.45 9.67 6.97 9.29 6.65C8.93 6.33 8.46 6.17 7.88 6.17C7.44 6.17 7.08 6.3 6.8 6.56C6.52 6.82 6.38 7.19 6.38 7.67C6.38 8.07 6.53 8.42 6.83 8.72C7.15 9 7.54 9.25 8 9.47C8.46 9.67 9.14 9.93 10.04 10.25C11.38 10.71 12.48 11.17 13.34 11.63C14.22 12.07 14.97 12.7 15.59 13.52C16.23 14.32 16.55 15.34 16.55 16.58C16.55 17.84 16.23 18.97 15.59 19.97C14.97 20.97 14.06 21.76 12.86 22.34C11.68 22.92 10.28 23.21 8.66 23.21ZM18.3235 14.57C18.3235 12.83 18.6335 11.31 19.2535 10.01C19.8935 8.71 20.7535 7.71 21.8335 7.01C22.9335 6.31 24.1535 5.96 25.4935 5.96C26.6535 5.96 27.6535 6.19 28.4935 6.65C29.3335 7.11 29.9835 7.73 30.4435 8.51V6.17H36.3235V23H30.4435V20.66C29.9835 21.44 29.3235 22.06 28.4635 22.52C27.6235 22.98 26.6335 23.21 25.4935 23.21C24.1535 23.21 22.9335 22.86 21.8335 22.16C20.7535 21.46 19.8935 20.46 19.2535 19.16C18.6335 17.84 18.3235 16.31 18.3235 14.57ZM30.4435 14.57C30.4435 13.49 30.1435 12.64 29.5435 12.02C28.9635 11.4 28.2435 11.09 27.3835 11.09C26.5035 11.09 25.7735 11.4 25.1935 12.02C24.6135 12.62 24.3235 13.47 24.3235 14.57C24.3235 15.65 24.6135 16.51 25.1935 17.15C25.7735 17.77 26.5035 18.08 27.3835 18.08C28.2435 18.08 28.9635 17.77 29.5435 17.15C30.1435 16.53 30.4435 15.67 30.4435 14.57ZM50.2041 23L45.5541 16.1V23H39.6741V0.8H45.5541V12.77L50.2041 6.17H57.2541L50.6241 14.63L57.3741 23H50.2041ZM58.138 14.57C58.138 12.83 58.448 11.31 59.068 10.01C59.708 8.71 60.568 7.71 61.648 7.01C62.748 6.31 63.968 5.96 65.308 5.96C66.468 5.96 67.468 6.19 68.308 6.65C69.148 7.11 69.798 7.73 70.258 8.51V6.17H76.138V23H70.258V20.66C69.798 21.44 69.138 22.06 68.278 22.52C67.438 22.98 66.448 23.21 65.308 23.21C63.968 23.21 62.748 22.86 61.648 22.16C60.568 21.46 59.708 20.46 59.068 19.16C58.448 17.84 58.138 16.31 58.138 14.57ZM70.258 14.57C70.258 13.49 69.958 12.64 69.358 12.02C68.778 11.4 68.058 11.09 67.198 11.09C66.318 11.09 65.588 11.4 65.008 12.02C64.428 12.62 64.138 13.47 64.138 14.57C64.138 15.65 64.428 16.51 65.008 17.15C65.588 17.77 66.318 18.08 67.198 18.08C68.058 18.08 68.778 17.77 69.358 17.15C69.958 16.53 70.258 15.67 70.258 14.57ZM92.8686 19.55H85.3686L84.2286 23H78.0486L85.7586 1.85H92.5386L100.219 23H94.0086L92.8686 19.55ZM91.3986 15.05L89.1186 8.21L86.8686 15.05H91.3986ZM108.345 5.96C109.485 5.96 110.475 6.19 111.315 6.65C112.175 7.11 112.835 7.73 113.295 8.51V6.17H119.175V22.82C119.175 24.4 118.875 25.82 118.275 27.08C117.675 28.36 116.735 29.38 115.455 30.14C114.195 30.9 112.595 31.28 110.655 31.28C108.055 31.28 105.975 30.67 104.415 29.45C102.855 28.23 101.965 26.57 101.745 24.47H107.535C107.655 25.01 107.955 25.43 108.435 25.73C108.915 26.03 109.535 26.18 110.295 26.18C112.295 26.18 113.295 25.06 113.295 22.82V20.66C112.835 21.44 112.175 22.06 111.315 22.52C110.475 22.98 109.485 23.21 108.345 23.21C107.005 23.21 105.785 22.86 104.685 22.16C103.605 21.46 102.745 20.46 102.105 19.16C101.485 17.84 101.175 16.31 101.175 14.57C101.175 12.83 101.485 11.31 102.105 10.01C102.745 8.71 103.605 7.71 104.685 7.01C105.785 6.31 107.005 5.96 108.345 5.96ZM113.295 14.57C113.295 13.49 112.995 12.64 112.395 12.02C111.815 11.4 111.095 11.09 110.235 11.09C109.355 11.09 108.625 11.4 108.045 12.02C107.465 12.62 107.175 13.47 107.175 14.57C107.175 15.65 107.465 16.51 108.045 17.15C108.625 17.77 109.355 18.08 110.235 18.08C111.095 18.08 111.815 17.77 112.395 17.15C112.995 16.53 113.295 15.67 113.295 14.57ZM138.606 14.39C138.606 14.85 138.576 15.31 138.516 15.77H127.386C127.446 16.69 127.696 17.38 128.136 17.84C128.596 18.28 129.176 18.5 129.876 18.5C130.856 18.5 131.556 18.06 131.976 17.18H138.246C137.986 18.34 137.476 19.38 136.716 20.3C135.976 21.2 135.036 21.91 133.896 22.43C132.756 22.95 131.496 23.21 130.116 23.21C128.456 23.21 126.976 22.86 125.676 22.16C124.396 21.46 123.386 20.46 122.646 19.16C121.926 17.86 121.566 16.33 121.566 14.57C121.566 12.81 121.926 11.29 122.646 10.01C123.366 8.71 124.366 7.71 125.646 7.01C126.946 6.31 128.436 5.96 130.116 5.96C131.776 5.96 133.246 6.3 134.526 6.98C135.806 7.66 136.806 8.64 137.526 9.92C138.246 11.18 138.606 12.67 138.606 14.39ZM132.606 12.92C132.606 12.2 132.366 11.64 131.886 11.24C131.406 10.82 130.806 10.61 130.086 10.61C129.366 10.61 128.776 10.81 128.316 11.21C127.856 11.59 127.556 12.16 127.416 12.92H132.606ZM152.022 6.02C153.962 6.02 155.502 6.67 156.642 7.97C157.782 9.25 158.352 10.99 158.352 13.19V23H152.472V13.97C152.472 13.01 152.222 12.26 151.722 11.72C151.222 11.16 150.552 10.88 149.712 10.88C148.832 10.88 148.142 11.16 147.642 11.72C147.142 12.26 146.892 13.01 146.892 13.97V23H141.012V6.17H146.892V8.57C147.412 7.81 148.112 7.2 148.992 6.74C149.872 6.26 150.882 6.02 152.022 6.02ZM160.618 14.57C160.618 12.83 160.978 11.31 161.698 10.01C162.418 8.71 163.418 7.71 164.698 7.01C165.998 6.31 167.478 5.96 169.138 5.96C171.278 5.96 173.078 6.55 174.538 7.73C175.998 8.89 176.938 10.52 177.358 12.62H171.118C170.758 11.52 170.058 10.97 169.018 10.97C168.278 10.97 167.688 11.28 167.248 11.9C166.828 12.5 166.618 13.39 166.618 14.57C166.618 15.75 166.828 16.65 167.248 17.27C167.688 17.89 168.278 18.2 169.018 18.2C170.078 18.2 170.778 17.65 171.118 16.55H177.358C176.938 18.63 175.998 20.26 174.538 21.44C173.078 22.62 171.278 23.21 169.138 23.21C167.478 23.21 165.998 22.86 164.698 22.16C163.418 21.46 162.418 20.46 161.698 19.16C160.978 17.86 160.618 16.33 160.618 14.57ZM197.921 6.17L187.241 31.01H180.851L184.871 22.28L177.971 6.17H184.511L188.051 15.71L191.471 6.17H197.921Z" fill="white"/>
</svg>
